HIERARCHY
ROOT hips
{
  OFFSET 0 10.6860622 2.3727825e-15
  CHANNELS 6 Xposition Yposition Zposition Yrotation Xrotation Zrotation
  JOINT leftUpperLeg
  {
    OFFSET 0.6642549969 -0.9402397400000004 0
    CHANNELS 3 Yrotation Xrotation Zrotation
    JOINT leftLowerLeg
    {
      OFFSET 0 -3.997221335632195 0
      CHANNELS 3 Yrotation Xrotation Zrotation
      JOINT leftFoot
      {
        OFFSET -0.13777839790000004 -4.6145792000000005 -0.22186036399999998
        CHANNELS 3 Yrotation Xrotation Zrotation
        JOINT leftToes
        {
          OFFSET -0.03777410834999995 -0.9130806927000008 0.85230013
          CHANNELS 3 Yrotation Xrotation Zrotation
          End Site
          {
            OFFSET -0.03777410834999995 -0.9130806927000008 0.85230013
          }
        }
      }
    }
  }
  JOINT rightUpperLeg
  {
    OFFSET -0.6642778626 -0.9402397400000004 0
    CHANNELS 3 Yrotation Xrotation Zrotation
    JOINT rightLowerLeg
    {
      OFFSET 0 -3.997221452859387 0
      CHANNELS 3 Yrotation Xrotation Zrotation
      JOINT rightFoot
      {
        OFFSET 0.1377926176 -4.6145792000000005 -0.22185782299999995
        CHANNELS 3 Yrotation Xrotation Zrotation
        JOINT rightToes
        {
          OFFSET 0.037780746850000047 -0.9130806927000008 0.85230167
          CHANNELS 3 Yrotation Xrotation Zrotation
          End Site
          {
            OFFSET 0.037780746850000047 -0.9130806927000008 0.85230167
          }
        }
      }
    }
  }
  JOINT spine
  {
    OFFSET 0 0.13988381660000015 0
    CHANNELS 3 Yrotation Xrotation Zrotation
    JOINT chest
    {
      OFFSET 0 0.6191039003973773 0
      CHANNELS 3 Yrotation Xrotation Zrotation
      JOINT upperChest
      {
        OFFSET 0 0.9855186130586943 0
        CHANNELS 3 Yrotation Xrotation Zrotation
        JOINT leftShoulder
        {
          OFFSET 0.1807663869 1.5087829790000005 0
          CHANNELS 3 Yrotation Xrotation Zrotation
          JOINT leftUpperArm
          {
            OFFSET 0.5985063006419806 0 0
            CHANNELS 3 Yrotation Xrotation Zrotation
            JOINT leftLowerArm
            {
              OFFSET 2.2993332369501065 0 0
              CHANNELS 3 Yrotation Xrotation Zrotation
              JOINT leftHand
              {
                OFFSET 2.395047042602395 0 0
                CHANNELS 3 Yrotation Xrotation Zrotation
                JOINT leftIndexProximal
                {
                  OFFSET 0.5766295810000004 0.04556643899499946 0.17265095988184
                  CHANNELS 3 Yrotation Xrotation Zrotation
                  JOINT leftIndexIntermediate
                  {
                    OFFSET 0.2957229000000008 -0.019352197700001517 -0.007932640616999987
                    CHANNELS 3 Yrotation Xrotation Zrotation
                    JOINT leftIndexDistal
                    {
                      OFFSET 0.19008243099999922 -0.012484908149998475 -0.002786250786000012
                      CHANNELS 3 Yrotation Xrotation Zrotation
                      End Site
                      {
                        OFFSET 0.19008243099999922 -0.012484908149998475 -0.002786250786000012
                      }
                    }
                  }
                }
                JOINT leftMiddleProximal
                {
                  OFFSET 0.5834975091000001 0.0524350405149987 0.02204081888183999
                  CHANNELS 3 Yrotation Xrotation Zrotation
                  JOINT leftMiddleIntermediate
                  {
                    OFFSET 0.33880573540000003 -0.019871473270000717 -0.00000971183179999946
                    CHANNELS 3 Yrotation Xrotation Zrotation
                    JOINT leftMiddleDistal
                    {
                      OFFSET 0.20676022730000088 -0.012221336379999448 0.0001471936708000235
                      CHANNELS 3 Yrotation Xrotation Zrotation
                      End Site
                      {
                        OFFSET 0.20676022730000088 -0.012221336379999448 0.0001471936708000235
                      }
                    }
                  }
                }
                JOINT leftLittleProximal
                {
                  OFFSET 0.5344154683999995 -0.012880921405001189 -0.24414037221816004
                  CHANNELS 3 Yrotation Xrotation Zrotation
                  JOINT leftLittleIntermediate
                  {
                    OFFSET 0.21758961730000093 -0.011650919939999227 0.011893592810000034
                    CHANNELS 3 Yrotation Xrotation Zrotation
                    JOINT leftLittleDistal
                    {
                      OFFSET 0.1475273964999999 -0.008152365682999818 0.006001092492999946
                      CHANNELS 3 Yrotation Xrotation Zrotation
                      End Site
                      {
                        OFFSET 0.1475273964999999 -0.008152365682999818 0.006001092492999946
                      }
                    }
                  }
                }
                JOINT leftRingProximal
                {
                  OFFSET 0.5799399463000003 0.026911854694997794 -0.12150566991816003
                  CHANNELS 3 Yrotation Xrotation Zrotation
                  JOINT leftRingIntermediate
                  {
                    OFFSET 0.26167887460000006 -0.013480186499999602 0.010996293000000053
                    CHANNELS 3 Yrotation Xrotation Zrotation
                    JOINT leftRingDistal
                    {
                      OFFSET 0.17667108799999987 -0.008990287899999228 0.0055541023999999065
                      CHANNELS 3 Yrotation Xrotation Zrotation
                      End Site
                      {
                        OFFSET 0.17667108799999987 -0.008990287899999228 0.0055541023999999065
                      }
                    }
                  }
                }
                JOINT leftThumbProximal
                {
                  OFFSET 0.11018806699999972 -0.09448718900500053 0.17047963138184
                  CHANNELS 3 Yrotation Xrotation Zrotation
                  JOINT leftThumbIntermediate
                  {
                    OFFSET 0.31062601459999983 -0.08126270900000132 0.15443142000000007
                    CHANNELS 3 Yrotation Xrotation Zrotation
                    JOINT leftThumbDistal
                    {
                      OFFSET 0.21627175790000086 -0.08833193599999878 0.018771167799999988
                      CHANNELS 3 Yrotation Xrotation Zrotation
                      End Site
                      {
                        OFFSET 0.21627175790000086 -0.08833193599999878 0.018771167799999988
                      }
                    }
                  }
                }
              }
            }
          }
        }
        JOINT neck
        {
          OFFSET 0 1.5463305265074576 0
          CHANNELS 3 Yrotation Xrotation Zrotation
          JOINT head
          {
            OFFSET 0 0.8456443600000344 0
            CHANNELS 3 Yrotation Xrotation Zrotation
            JOINT leftEye
            {
              OFFSET 0.30408573140000006 0.5104519199999995 0.1276382305
              CHANNELS 3 Yrotation Xrotation Zrotation
              End Site
              {
                OFFSET 0.30408573140000006 0.5104519199999995 0.1276382305
              }
            }
            JOINT rightEye
            {
              OFFSET -0.30409491089999996 0.5104519199999995 0.1276379445
              CHANNELS 3 Yrotation Xrotation Zrotation
              End Site
              {
                OFFSET -0.30409491089999996 0.5104519199999995 0.1276379445
              }
            }
            JOINT jaw
            {
              OFFSET -3.155239131000001e-7 -0.11984121820000082 0.60178107
              CHANNELS 3 Yrotation Xrotation Zrotation
              End Site
              {
                OFFSET -3.155239131000001e-7 -0.11984121820000082 0.60178107
              }
            }
          }
        }
        JOINT rightShoulder
        {
          OFFSET -0.1807303465 1.5087829790000005 0
          CHANNELS 3 Yrotation Xrotation Zrotation
          JOINT rightUpperArm
          {
            OFFSET -0.5985063796536958 0 0
            CHANNELS 3 Yrotation Xrotation Zrotation
            JOINT rightLowerArm
            {
              OFFSET -2.2993322059002854 0 0
              CHANNELS 3 Yrotation Xrotation Zrotation
              JOINT rightHand
              {
                OFFSET -2.395045314457259 0 0
                CHANNELS 3 Yrotation Xrotation Zrotation
                JOINT rightIndexProximal
                {
                  OFFSET -0.5764487688300002 0.0441371204405987 0.17361932004999997
                  CHANNELS 3 Yrotation Xrotation Zrotation
                  JOINT rightIndexIntermediate
                  {
                    OFFSET -0.29573011380000047 -0.01934826376999843 -0.007698921482999974
                    CHANNELS 3 Yrotation Xrotation Zrotation
                    JOINT rightIndexDistal
                    {
                      OFFSET -0.19008373999999884 -0.012503266380000655 -0.0026365778999999897
                      CHANNELS 3 Yrotation Xrotation Zrotation
                      End Site
                      {
                        OFFSET -0.19008373999999884 -0.012503266380000655 -0.0026365778999999897
                      }
                    }
                  }
                }
                JOINT rightMiddleProximal
                {
                  OFFSET -0.5834852037300005 0.05211639405060153 0.02307162440000001
                  CHANNELS 3 Yrotation Xrotation Zrotation
                  JOINT rightMiddleIntermediate
                  {
                    OFFSET -0.33880114510000003 -0.019952774050000954 0.0002455003561999819
                    CHANNELS 3 Yrotation Xrotation Zrotation
                    JOINT rightMiddleDistal
                    {
                      OFFSET -0.20675694929999955 -0.012273788999999091 0.00030209124000002766
                      CHANNELS 3 Yrotation Xrotation Zrotation
                      End Site
                      {
                        OFFSET -0.20675694929999955 -0.012273788999999091 0.00030209124000002766
                      }
                    }
                  }
                }
                JOINT rightLittleProximal
                {
                  OFFSET -0.5346811737299992 -0.011214256288399227 -0.24363941305000003
                  CHANNELS 3 Yrotation Xrotation Zrotation
                  JOINT rightLittleIntermediate
                  {
                    OFFSET -0.21757715980000092 -0.011771559690000988 0.01201554387
                    CHANNELS 3 Yrotation Xrotation Zrotation
                    JOINT rightLittleDistal
                    {
                      OFFSET -0.1475201849000004 -0.00822055339600003 0.006082065407000015
                      CHANNELS 3 Yrotation Xrotation Zrotation
                      End Site
                      {
                        OFFSET -0.1475201849000004 -0.00822055339600003 0.006082065407000015
                      }
                    }
                  }
                }
                JOINT rightRingProximal
                {
                  OFFSET -0.5800810755299999 0.027657985680600072 -0.12066365025000003
                  CHANNELS 3 Yrotation Xrotation Zrotation
                  JOINT rightRingIntermediate
                  {
                    OFFSET -0.26166445029999974 -0.013623118409999302 0.011164098990000045
                    CHANNELS 3 Yrotation Xrotation Zrotation
                    JOINT rightRingDistal
                    {
                      OFFSET -0.17666387530000027 -0.009072900100000503 0.005668185599999959
                      CHANNELS 3 Yrotation Xrotation Zrotation
                      End Site
                      {
                        OFFSET -0.17666387530000027 -0.009072900100000503 0.005668185599999959
                      }
                    }
                  }
                }
                JOINT rightThumbProximal
                {
                  OFFSET -0.10997596379000074 -0.09577489355940072 0.16989765924999997
                  CHANNELS 3 Yrotation Xrotation Zrotation
                  JOINT rightThumbIntermediate
                  {
                    OFFSET -0.31036620999999986 -0.08229339117999834 0.15440884469999996
                    CHANNELS 3 Yrotation Xrotation Zrotation
                    JOINT rightThumbDistal
                    {
                      OFFSET -0.21631306399999906 -0.08825326400000111 0.018656797720000014
                      CHANNELS 3 Yrotation Xrotation Zrotation
                      End Site
                      {
                        OFFSET -0.21631306399999906 -0.08825326400000111 0.018656797720000014
                      }
                    }
                  }
                }
              }
            }
          }
        }
      }
    }
  }
}
MOTION
Frames: 6
Frame Time: 0.03333333333333333
5.366740723532839 -5.727914055891255 3.410947186674195 -0.0161033272128439 -75.00680708026462 -179.9876368878839 115.26642094505887 -41.70533643500172 -75.56394300180558 -21.455027307395877 63.66463194638799 27.11898556545292 -4.15274177636247 27.420215133181333 -5.796432871131533 0 0 0 -29.476059333614558 -1.869760813168596 -42.60920980771841 21.520509378531074 63.45551961790777 -26.576653754522255 21.140374967139948 9.667772845966887 39.885512586075286 0 0 0 10.202619455328573 28.645185924945363 5.599434248883217 0.37472706276308654 16.057640718729626 -0.6208811790001768 0 0 0 -19.945611941926366 -18.98292844673484 -5.506471550965127 -0.5915553527770363 -12.87385313584768 -5.730331385991381 -90.87951860357174 6.7147387164093315 -78.98879319041154 36.58786766567581 -3.79020736948456 -11.86130677023052 0 0 0 0 0 0 0 0 0 0 0 0 0 0 0 0 0 0 0 0 0 0 0 0 0 0 0 0 0 0 0 0 0 0 0 0 0 0 0 0 0 0 0 0 0 11.267019619053432 6.904786127550097 -8.724826080798408 -6.743113783826038 -21.679106941270792 -4.879442691100423 0 0 0 0 0 0 0 0 0 0.7516943854267046 -5.136796002213362 7.473026170007991 30.996556618929848 -16.565904736316725 9.503624701855951 52.16993540279123 -6.295267611313693 29.77559785250688 -23.622250129899662 -36.187305493229175 34.82366026297535 0 0 0 0 0 0 0 0 0 0 0 0 0 0 0 0 0 0 0 0 0 0 0 0 0 0 0 0 0 0 0 0 0 0 0 0 0 0 0 0 0 0 0 0 0
5.366740723532839 -5.727914055891255 3.410947186674195 -0.0161033272128439 -75.00680708026462 -179.9876368878839 115.5384639860199 -41.75567848071098 -75.93345615511133 -21.455027307395877 63.66463194638799 27.11898556545292 -4.15274177636247 27.420218980512203 -5.796433259690259 0 0 0 -29.91347219595499 -3.153015050618455 -43.15993495477024 21.52407834972103 63.45386902127293 -26.57818235163542 22.275800344062972 9.79718664407107 39.04670793135766 0 0 0 10.145559530744112 28.05491862113192 5.478928119219166 0.33435255331242625 16.759506364439268 -0.5577505996228713 0 0 0 -20.39785717195988 -19.40641936391004 -4.1980146000110885 -0.5915550243739057 -12.873854011636045 -5.730332693109245 -91.04758357505027 5.987707248598523 -78.93097927994836 37.04240334719846 -4.738407670488694 -11.421151447108846 0 0 0 0 0 0 0 0 0 0 0 0 0 0 0 0 0 0 0 0 0 0 0 0 0 0 0 0 0 0 0 0 0 0 0 0 0 0 0 0 0 0 0 0 0 11.179071862933434 6.904189710265743 -8.702588677788528 -6.771818333594235 -21.34113479534128 -4.66964658477007 0 0 0 0 0 0 0 0 0 0.3584582741810221 -5.9687721582455975 6.6784841391787655 30.996556618929848 -16.565904736316725 9.503625580376994 52.49521593272164 -6.475300896970396 29.90449792760505 -23.139557781677674 -37.106394267024946 34.47173627330651 0 0 0 0 0 0 0 0 0 0 0 0 0 0 0 0 0 0 0 0 0 0 0 0 0 0 0 0 0 0 0 0 0 0 0 0 0 0 0 0 0 0 0 0 0
5.366740723532839 -5.727914055891255 3.410947186674195 -0.0161033272128439 -75.00680708026462 -179.9876368878839 115.6747456041282 -41.780349097425315 -76.11845470411217 -21.455027307395877 63.66463194638799 27.11898556545292 -4.15274177636247 27.42021705684675 -5.796432871131533 0 0 0 -30.128032025399364 -3.797048707193686 -43.43224964930281 21.525864221292682 63.45305139985871 -26.57894744100126 22.84374543324256 9.86813236136689 38.627601802987094 0 0 0 10.117665592072155 27.759680987939348 5.4191585780754625 0.314405841693087 17.110562054707785 -0.5262815481734099 0 0 0 -20.628487680291848 -19.61469177556789 -3.5405066320272414 -0.5915550243739057 -12.873854011636045 -5.730332693109245 -91.13185145163321 5.624128420921319 -78.90128742520956 37.267349500138536 -5.214187222790222 -11.203499885057022 0 0 0 0 0 0 0 0 0 0 0 0 0 0 0 0 0 0 0 0 0 0 0 0 0 0 0 0 0 0 0 0 0 0 0 0 0 0 0 0 0 0 0 0 0 11.135093917784218 6.903905047054033 -8.691469667772651 -6.78565525003464 -21.172011812439496 -4.564935294669165 0 0 0 0 0 0 0 0 0 0.16579357035892112 -6.387165726816748 6.2825368224397415 30.996556618929848 -16.565904736316725 9.503625580376994 52.65776115533722 -6.565598688577919 29.96858312947236 -22.893177181596247 -37.565308382916115 34.2903881564678 0 0 0 0 0 0 0 0 0 0 0 0 0 0 0 0 0 0 0 0 0 0 0 0 0 0 0 0 0 0 0 0 0 0 0 0 0 0 0 0 0 0 0 0 0
5.366740723532839 -5.727914055891255 3.410947186674195 -0.0161033272128439 -75.00680708026462 -179.9876368878839 115.81118613093149 -41.80469476394817 -76.30360224222015 -21.455027307395877 63.66463194638799 27.11898556545292 -4.15274177636247 27.420215133181333 -5.796432871131533 0 0 0 -30.33969587315162 -4.442089215229909 -43.702361151264164 21.527646811915364 63.452233801797504 -26.57971419605522 23.41127399761306 9.943166399822822 38.209133435583254 0 0 0 10.090196257573455 27.464418272638756 5.359712197878072 0.29462320781677037 17.461627795038808 -0.49488066384806323 0 0 0 -20.86194021849762 -19.820451810576525 -2.881261057644245 -0.5915550243739057 -12.873854011636045 -5.730332693109245 -91.21625752208806 5.260593601819389 -78.87107659036187 37.490654566833626 -5.690811083680138 -10.987554329035698 0 0 0 0 0 0 0 0 0 0 0 0 0 0 0 0 0 0 0 0 0 0 0 0 0 0 0 0 0 0 0 0 0 0 0 0 0 0 0 0 0 0 0 0 0 11.09111573768314 6.903628984102918 -8.680349490887547 -6.799145458981663 -21.002866129658265 -4.460386832301956 0 0 0 0 0 0 0 0 0 -0.02411772471321764 -6.806870623972806 5.887673234995638 30.996556618929848 -16.565904736316725 9.503624701855951 52.82023645646882 -6.656077039604449 30.03242214348725 -22.643420158771814 -38.0235946945968 34.10540459109775 0 0 0 0 0 0 0 0 0 0 0 0 0 0 0 0 0 0 0 0 0 0 0 0 0 0 0 0 0 0 0 0 0 0 0 0 0 0 0 0 0 0 0 0 0
5.366740723532839 -5.727914055891255 3.410947186674195 -0.0161033272128439 -75.00680708026462 -179.9876368878839 116.08449817433763 -41.852432710408124 -76.67432872704848 -21.455027307395877 63.66463194638799 27.11898556545292 -4.15274177636247 27.420215133181333 -5.796432871131533 0 0 0 -30.754901336087645 -5.736388262322755 -44.2367497143331 21.53122375026136 63.450591035168586 -26.58123561236277 24.546210253885075 10.105637997303418 37.3733694740776 0 0 0 10.036492553485076 26.873718305516544 5.241743577949492 0.2555391210194434 18.163950438785577 -0.4322612860925361 0 0 0 -21.337617333928133 -20.224608388490026 -1.556505785988707 -0.5915550243739057 -12.873854011636045 -5.730332693109245 -91.38556419767173 4.533476882216987 -78.80909114094162 37.93271101323103 -6.647123008609973 -10.560429766973812 0 0 0 0 0 0 0 0 0 0 0 0 0 0 0 0 0 0 0 0 0 0 0 0 0 0 0 0 0 0 0 0 0 0 0 0 0 0 0 0 0 0 0 0 0 11.003140233342952 6.903100078898756 -8.658102230514112 -6.825105369512551 -20.664313120115693 -4.25164865422584 0 0 0 0 0 0 0 0 0 -0.3959577458576164 -7.650722057888598 5.100499450633658 30.996558146022302 -16.565902954823972 9.503623235050439 53.144986009738155 -6.837580591940163 30.15936654633523 -22.133167867697452 -38.93862738209376 33.72401123354258 0 0 0 0 0 0 0 0 0 0 0 0 0 0 0 0 0 0 0 0 0 0 0 0 0 0 0 0 0 0 0 0 0 0 0 0 0 0 0 0 0 0 0 0 0
5.366740723532839 -5.727914055891255 3.410947186674195 -0.0161033272128439 -75.00680708026462 -179.9876368878839 116.22140072430068 -41.87579218151625 -76.85991495648484 -21.455027307395877 63.66463194638799 27.11898556545292 -4.15274177636247 27.420215133181333 -5.796432871131533 0 0 0 -30.958446578713243 -6.385392105065025 -44.50104549660838 21.533008185885457 63.449773507371525 -26.58200052561202 25.113378164045766 10.193040467215488 36.956294390825434 0 0 0 10.010252708434638 26.578300725773953 5.183215819976286 0.23623854310545733 18.51518236412261 -0.40104065766122377 0 0 0 -21.579750178846364 -20.422883493988028 -0.8911646026599849 -0.5915549696400506 -12.873854887424411 -5.730332693109245 -91.47048277624889 4.169921429487831 -78.77731377984014 38.151459162013005 -7.1266893185559965 -10.34925508587295 0 0 0 0 0 0 0 0 0 0 0 0 0 0 0 0 0 0 0 0 0 0 0 0 0 0 0 0 0 0 0 0 0 0 0 0 0 0 0 0 0 0 0 0 0 10.959148581649101 6.9028480966272685 -8.646977694942436 -6.837577070373506 -20.494910723555144 -4.1474588079774675 0 0 0 0 0 0 0 0 0 -0.5778444406054355 -8.074723994988899 4.708209679543057 30.996558146022302 -16.565902954823972 9.503624701855951 53.307265585646874 -6.9286047336879735 30.222471668925007 -21.872519904500216 -39.39526722372501 33.527446058588666 0 0 0 0 0 0 0 0 0 0 0 0 0 0 0 0 0 0 0 0 0 0 0 0 0 0 0 0 0 0 0 0 0 0 0 0 0 0 0 0 0 0 0 0 0
